<svg data-v-423bf9ae="" xmlns="http://www.w3.org/2000/svg" viewBox="0 0 374.5382959322893 60" class="font"><!----><!----><defs data-v-423bf9ae=""><linearGradient data-v-423bf9ae="" gradientTransform="rotate(25)" id="3cd66952-52d3-4dc4-885e-cabb9d2d98f7" x1="0%" y1="0%" x2="100%" y2="0%"><stop data-v-423bf9ae="" offset="0%" style="stop-color: rgb(65, 15, 248); stop-opacity: 1;"></stop><stop data-v-423bf9ae="" offset="100%" style="stop-color: rgb(65, 15, 248); stop-opacity: 1;"></stop></linearGradient></defs><g data-v-423bf9ae="" id="80bbbd8c-8969-48e3-845b-c77503fea07d" fill="url(#3cd66952-52d3-4dc4-885e-cabb9d2d98f7)" transform="matrix(4.735595867300924,0,0,4.735595867300924,-1.3259599977682512,3.6464082506602296)"><path d="M3.98-0.77L3.98 0.63C2.41 0.71 0.52 1.46 0.56 3.28C0.62 5.11 2.39 5.45 4.19 5.80C5.80 6.10 7.42 6.43 7.41 7.90C7.41 9.38 5.49 9.81 4.28 9.81C3.09 9.81 1.54 9.44 0.95 8.29L0.28 8.62C0.95 9.94 2.55 10.49 3.98 10.54L3.98 11.90L4.59 11.90L4.59 10.54C6.19 10.47 8.15 9.76 8.16 7.91C8.16 5.80 6.20 5.46 4.31 5.10C2.66 4.79 1.34 4.48 1.32 3.25C1.27 1.81 3.14 1.33 4.28 1.33C5.33 1.34 6.68 1.69 7.21 2.69L7.87 2.32C7.24 1.18 5.87 0.70 4.61 0.63L4.61-0.77ZM9.04 11.51L15.60 11.51L15.60 10.86L9.04 10.86ZM26.99 5.82L26.42 5.60C26.04 6.68 25.27 6.69 24.49 6.27L23.06 5.46C21.76 4.75 20.64 5.36 20.10 6.58L20.62 6.83C20.97 6.01 21.81 5.56 22.76 6.05L24.29 6.93C25.54 7.56 26.52 7.08 26.99 5.82ZM28.25 11.65L33.49-0.13L32.73-0.13L27.51 11.65ZM39.72 4.40C39.03 3.75 38.15 3.47 37.14 3.47C35.74 3.46 34.38 4.05 34.40 5.40C34.41 6.79 35.74 7.04 37.09 7.27C38.22 7.45 39.37 7.64 39.34 8.64C39.30 9.73 38.02 9.95 37.18 9.95C36.26 9.95 35.22 9.60 34.65 8.78L34.15 9.23C34.75 10.15 35.95 10.61 37.17 10.61C38.39 10.61 39.97 10.21 40.01 8.68C40.08 7.07 38.39 6.86 37.16 6.65C36.29 6.50 35.08 6.31 35.06 5.39C35.03 4.51 36.06 4.10 37.14 4.12C37.91 4.12 38.60 4.23 39.30 4.84ZM41.54 0.70L41.54 10.50L42.22 10.50L42.22 6.71C42.22 5.26 43.23 4.14 44.69 4.14C46.24 4.14 46.91 5.11 46.91 6.54L46.91 10.50L47.59 10.50L47.59 6.54C47.59 4.73 46.62 3.49 44.69 3.49C43.72 3.50 42.76 3.88 42.20 4.87L42.20 0.70ZM55.34 3.58L55.34 5.10C54.77 4.02 53.63 3.50 52.51 3.50C50.58 3.50 49.00 4.93 49.00 7.04C49.00 9.16 50.58 10.61 52.51 10.61C53.63 10.61 54.67 10.11 55.34 9.03L55.34 10.50L56.03 10.50C56.03 8.19 56.03 5.89 56.03 3.58ZM52.51 4.16C56.36 4.16 56.36 9.94 52.51 9.94C50.95 9.94 49.69 8.78 49.69 7.04C49.69 5.31 50.95 4.16 52.51 4.16ZM63.06 4.40C62.37 3.75 61.49 3.47 60.48 3.47C59.08 3.46 57.72 4.05 57.74 5.40C57.75 6.79 59.08 7.04 60.42 7.27C61.56 7.45 62.71 7.64 62.68 8.64C62.64 9.73 61.36 9.95 60.52 9.95C59.60 9.95 58.56 9.60 57.99 8.78L57.48 9.23C58.09 10.15 59.29 10.61 60.51 10.61C61.73 10.61 63.31 10.21 63.35 8.68C63.42 7.07 61.73 6.86 60.49 6.65C59.63 6.50 58.42 6.31 58.39 5.39C58.37 4.51 59.40 4.10 60.48 4.12C61.25 4.12 61.94 4.23 62.64 4.84ZM64.88 0.70L64.88 10.50L65.56 10.50L65.56 6.71C65.56 5.26 66.57 4.14 68.03 4.14C69.58 4.14 70.25 5.11 70.25 6.54L70.25 10.50L70.92 10.50L70.92 6.54C70.92 4.73 69.96 3.49 68.03 3.49C67.06 3.50 66.09 3.88 65.53 4.87L65.53 0.70ZM78.68 3.58L78.68 5.10C78.11 4.02 76.97 3.50 75.85 3.50C73.92 3.50 72.34 4.93 72.34 7.04C72.34 9.16 73.92 10.61 75.85 10.61C76.97 10.61 78.01 10.11 78.68 9.03L78.68 10.50L79.37 10.50C79.37 8.19 79.37 5.89 79.37 3.58ZM75.85 4.16C79.70 4.16 79.70 9.94 75.85 9.94C74.28 9.94 73.02 8.78 73.02 7.04C73.02 5.31 74.28 4.16 75.85 4.16Z"></path></g><!----><!----></svg>